# xmcd
#
# Track frame offsets:
#	150
#	19796
#	47113
#
# Disc length: 895
#
# Revision: 6
# Processed by: cddbd v1.5.1PL0 Copyright (c) Steve Scherf et al.
# Submitted via: CDex 1.50beta9
# Normalized: r3:TDELIM( - ),TSWAP;r5:DSETVAR1
#
DISCID=1d037d03
DTITLE=Various Artist - Seleção
DYEAR=1900
DGENRE=Pop
TTITLE0=Gonzaguinha - O que é, o que é
TTITLE1=Roberto Carlos - Guerra dos meninos
TTITLE2=Roberto Carlos - Eu quero apenas
EXTD=
EXTT0=
EXTT1=
EXTT2=
PLAYORDER=
